<svg width="199" height="199" viewBox="0 0 199 199" fill="none" xmlns="http://www.w3.org/2000/svg">
<path d="M68.3167 34.9249C69.5394 36.1358 70.8276 37.2755 72.2604 38.2283C79.569 43.0895 101.314 54.7861 135.803 50.0058C178.895 44.033 172.574 87.3601 166.373 98.9075C160.172 110.455 137.367 131.623 135.452 142.229C133.537 152.835 141.733 181.803 122.529 173.111C103.324 164.418 92.2301 144.059 67.023 146.425C41.8159 148.791 24.0039 137.621 35.1621 117.664C46.3203 97.7074 59.6609 84.8292 42.6333 62.5997C26.0784 40.9885 53.9634 20.7099 68.3167 34.9249Z" fill="#DEE9FF"/>
<path d="M112.042 57.3141C111.722 56.9923 111.54 56.5595 111.532 56.1061C111.524 55.6527 111.692 55.2138 112 54.8811L123.37 42.6088C123.531 42.435 123.726 42.2955 123.942 42.1988C124.158 42.1021 124.392 42.0501 124.629 42.046C124.866 42.0419 125.101 42.0857 125.321 42.1749C125.54 42.264 125.739 42.3967 125.906 42.5648L126.888 43.5532C127.055 43.7214 127.186 43.9216 127.274 44.1418C127.362 44.362 127.404 44.5976 127.398 44.8345C127.392 45.0714 127.339 45.3047 127.24 45.5204C127.142 45.736 127.001 45.9296 126.826 46.0894L114.475 57.3733C114.14 57.6792 113.7 57.8439 113.246 57.8329C112.793 57.8218 112.361 57.636 112.042 57.3141V57.3141Z" fill="#418DF9"/>
<path d="M104.845 53.1309C104.573 53.0104 104.358 52.7895 104.246 52.5144C104.133 52.2393 104.131 51.9312 104.24 51.6546L108.264 41.4494C108.321 41.3048 108.406 41.1733 108.516 41.0627C108.625 40.9521 108.755 40.8647 108.899 40.8058C109.043 40.7469 109.197 40.7176 109.352 40.7198C109.508 40.722 109.661 40.7556 109.803 40.8186L110.638 41.1887C110.78 41.2517 110.908 41.3427 111.014 41.4563C111.12 41.57 111.202 41.7039 111.255 41.85C111.308 41.9961 111.33 42.1514 111.322 42.3065C111.313 42.4616 111.273 42.6134 111.204 42.7527L106.346 52.5878C106.214 52.8545 105.984 53.0599 105.705 53.1611C105.425 53.2623 105.117 53.2515 104.845 53.1309Z" fill="#418DF9"/>
<path d="M97.5227 54.7989C96.5954 54.9658 95.665 54.1701 95.4133 52.9951L90.9505 32.1316C90.6843 30.8848 91.2813 29.6989 92.265 29.5216L93.6359 29.2748C94.6196 29.0977 95.5933 30.0012 95.7781 31.2624L98.8703 52.3726C99.0444 53.5619 98.45 54.6319 97.5227 54.7989Z" fill="#418DF9"/>
<path d="M169.656 74.4336L149.974 71.8964C149.642 71.861 149.308 71.9275 149.015 72.087C148.723 72.2465 148.486 72.4915 148.336 72.7892L143.102 83.1231L121.194 126.939C120.961 127.402 120.571 127.766 120.093 127.968C119.616 128.169 119.082 128.193 118.589 128.037L59.1229 109.056C58.9589 109.003 58.7848 108.991 58.6149 109.019C58.445 109.047 58.2843 109.115 58.1458 109.217C58.0073 109.319 57.8952 109.453 57.8185 109.607C57.7418 109.762 57.7028 109.932 57.7047 110.104L57.732 112.573C57.7353 112.917 57.8469 113.25 58.0508 113.526C58.2548 113.803 58.5407 114.007 58.8678 114.112L121.784 134.193C122.485 134.417 123.115 134.823 123.609 135.368C124.104 135.914 124.445 136.581 124.599 137.301L124.62 137.399C125.167 140.405 122.205 142.873 119.285 141.987L50.2954 119.938C49.9415 119.825 49.6366 119.595 49.4313 119.286C49.2259 118.976 49.1324 118.606 49.1661 118.236L54.5654 59.2756C54.5925 58.9716 54.6833 58.6767 54.8318 58.4101C54.9803 58.1434 55.1833 57.911 55.4274 57.7279C55.6716 57.5447 55.9515 57.415 56.2491 57.3471C56.5466 57.2792 56.8552 57.2746 57.1546 57.3336L139.803 73.5017L145.126 62.9225C145.28 62.6235 145.522 62.3788 145.819 62.2216C146.116 62.0643 146.454 62.002 146.788 62.0431L170.89 65.1296C171.104 65.1564 171.311 65.2254 171.497 65.3326C171.684 65.4397 171.848 65.5829 171.98 65.7538C172.111 65.9247 172.207 66.1199 172.262 66.3282C172.317 66.5365 172.331 66.7536 172.302 66.9671L171.48 73.0295C171.423 73.4569 171.199 73.8445 170.857 74.1075C170.516 74.3706 170.084 74.4878 169.656 74.4336V74.4336Z" fill="#699CFF"/>
<path d="M57.8982 98.9609L64.6327 101.11L71.0928 68.3524L60.7539 66.7649L57.8982 98.9609Z" fill="#DEE9FF"/>
<path d="M110.738 115.827L117.473 117.976L134.889 81.2946L127.471 79.4977L110.738 115.827Z" fill="#DEE9FF"/>
<path d="M84.8363 107.559L91.0528 109.543L104.369 74.9779L94.1954 72.8724L84.8363 107.559Z" fill="#DEE9FF"/>
<path d="M76.9566 69.6533L87.1301 71.7588L78.1017 105.41L71.3673 103.26L76.9566 69.6533Z" fill="#DEE9FF"/>
<path d="M121.09 78.0315L110.916 75.9259L98.3054 111.858L104.522 113.842L121.09 78.0315Z" fill="#DEE9FF"/>
<path d="M59.1977 141.224C63.5525 141.224 67.0827 137.694 67.0827 133.339C67.0827 128.985 63.5525 125.454 59.1977 125.454C54.843 125.454 51.3127 128.985 51.3127 133.339C51.3127 137.694 54.843 141.224 59.1977 141.224Z" fill="#A2BDFF"/>
<path d="M108.412 156.933C112.766 156.933 116.297 153.403 116.297 149.048C116.297 144.693 112.766 141.163 108.412 141.163C104.057 141.163 100.527 144.693 100.527 149.048C100.527 153.403 104.057 156.933 108.412 156.933Z" fill="#A2BDFF"/>
<path d="M173.197 64.8034L152.424 62.2028C152.309 62.1884 152.204 62.27 152.19 62.3852L150.931 72.4421C150.916 72.5573 150.998 72.6623 151.113 72.6768L171.885 75.2774C172.001 75.2918 172.106 75.2101 172.12 75.0949L173.379 65.038C173.393 64.9228 173.312 64.8178 173.197 64.8034Z" fill="#A2BDFF"/>
</svg>
